<svg xmlns="http://www.w3.org/2000/svg" viewBox="0 0 400 400">
  
  <circle cx="200" cy="200" r="180" fill="#e0f7fa" />
  
  
  <g stroke="#333" stroke-width="6" fill="none">
    <circle cx="130" cy="320" r="40" /> 
    <circle cx="270" cy="320" r="40" /> 
    
    <path d="M130 280 v80 M90 320 h80 M270 280 v80 M230 320 h80" stroke="#999" stroke-width="2" />
  </g>

  
  <g stroke="#e63946" stroke-width="8" fill="none" stroke-linecap="round">
    <path d="M130 320 L200 320 L260 240 L170 240 Z" /> 
    <path d="M270 320 L250 230" /> 
    <path d="M130 320 L170 240" /> 
    <path d="M250 230 L240 210" /> 
  </g>
  
  
  <path d="M230 210 h40" stroke="#333" stroke-width="6" fill="none" stroke-linecap="round" />

  
  <ellipse cx="180" cy="200" rx="50" ry="40" fill="white" />
  <path d="M130 200 Q100 180 130 160" fill="white" /> 
  
  
  <path d="M210 180 Q240 180 230 130" fill="none" stroke="white" stroke-width="25" stroke-linecap="round" />
  <circle cx="230" cy="120" r="25" fill="white" /> 
  <circle cx="240" cy="115" r="3" fill="black" /> 
  
  
  <path d="M250 115 L310 125 Q300 160 255 150 Z" fill="#ffb703" />
  <path d="M250 125 L300 130" stroke="#f9a600" stroke-width="2" fill="none" />

  
  <path d="M180 240 L180 300 L200 315" stroke="#ffb703" stroke-width="6" fill="none" stroke-linecap="round" />
  
  
  <rect x="185" y="310" width="30" height="8" rx="4" fill="#333" />
</svg>