<?xml version="1.0" encoding="UTF-8" standalone="no"?>
<!DOCTYPE svg PUBLIC "-//W3C//DTD SVG 1.1//EN" "http://www.w3.org/Graphics/SVG/1.1/DTD/svg11.dtd">
<svg width="100%" height="100%" viewBox="0 0 1180 204" version="1.1" xmlns="http://www.w3.org/2000/svg" xmlns:xlink="http://www.w3.org/1999/xlink" xml:space="preserve" xmlns:serif="http://www.serif.com/" style="fill-rule:evenodd;clip-rule:evenodd;stroke-linejoin:round;stroke-miterlimit:2;">
    <g transform="matrix(1.881913,0,0,1.175084,-1631.486149,-831.822563)">
        <path d="M940.196,816.608C937.608,823.519 932.374,831.763 922.105,831.763C911.046,831.763 899.847,819.139 899.847,795.01C899.847,768.877 911.263,756.97 921.873,756.97C931.076,756.97 935.987,763.58 938.485,769.125L939.352,771.047L954.207,747.251L953.454,745.829C948.304,736.096 938.646,724.501 921.87,724.501C897.097,724.501 878.419,754.811 878.419,795.01C878.419,835.543 896.789,864.962 922.098,864.962C940.094,864.962 950.206,851.417 955.517,840.053L956.173,838.652L941.02,814.377L940.196,816.608Z" style="fill-rule:nonzero;"/>
    </g>
    <g transform="matrix(1.881913,0,0,1.175084,-1631.486149,-831.822563)">
        <path d="M1006.102,724.409C987.557,724.409 971.536,741.567 965.279,768.111L964.991,769.331L979.436,792.539L963.568,792.539L962.303,792.719L962.303,794.741C962.303,834.727 981.132,864.877 1006.098,864.877C1031.001,864.877 1049.779,834.723 1049.779,794.741C1049.781,754.644 1031.003,724.409 1006.102,724.409ZM1006.102,756.878C1016.818,756.878 1028.358,768.668 1028.358,794.553C1028.358,820.306 1016.818,832.036 1006.102,832.036C994.965,832.036 983.733,820.444 983.733,794.553C983.733,768.671 995.328,756.878 1006.102,756.878Z" style="fill-rule:nonzero;"/>
    </g>
    <g transform="matrix(1.881913,0,0,1.175084,-1631.486149,-831.822563)">
        <path d="M1109.375,812.246L1087.772,727.267L1067.314,727.267L1078.606,772.501L1061.918,772.501L1061.918,862.2L1081.73,862.2L1081.73,785.032L1100.943,862.2L1117.412,862.2L1136.616,784.053L1136.616,862.2L1157.003,862.2L1157.003,727.267L1129.866,727.267L1109.375,812.246Z" style="fill-rule:nonzero;"/>
    </g>
    <g transform="matrix(1.881913,0,0,1.175084,-1631.486149,-831.822563)">
        <path d="M1206.184,727.182L1174.147,727.182L1174.147,756.513L1190.697,756.513L1174.147,783.1L1174.147,862.104L1194.879,862.104L1194.879,815.03L1206.184,815.03C1223.418,815.03 1235.456,796.967 1235.456,771.107C1235.456,745.244 1223.416,727.182 1206.184,727.182ZM1194.99,756.513L1204.331,756.513C1210.736,756.513 1214.715,762.175 1214.715,771.288C1214.715,780.149 1210.639,785.883 1204.331,785.883L1194.99,785.883L1194.99,756.513Z" style="fill-rule:nonzero;"/>
    </g>
    <g transform="matrix(1.881913,0,0,1.175084,-1631.486149,-831.822563)">
        <path d="M1286.214,804.995L1301.874,785.167L1298.094,727.267L1275.25,727.267L1220.948,862.2L1242.798,862.2L1253.124,835.617L1282.928,835.617L1284.358,862.2L1306.891,862.2L1303.158,804.995L1286.214,804.995ZM1265.134,804.995L1279.576,767.877L1281.405,804.995L1265.134,804.995Z" style="fill:rgb(4,4,197);fill-rule:nonzero;"/>
    </g>
    <g transform="matrix(1.881913,0,0,1.175084,-1631.486149,-831.822563)">
        <path d="M1325.803,758.045L1342.468,758.045L1321.322,784.83L1308.376,862.2L1329.341,862.2L1351.914,727.267L1330.953,727.267L1325.803,758.045Z" style="fill:rgb(4,4,197);fill-rule:nonzero;"/>
    </g>
    <g transform="matrix(1.881913,0,0,1.175084,-1631.486149,-831.822563)">
        <path d="M1413.83,770.203C1413.83,744.882 1402.414,727.203 1386.059,727.203L1352.405,727.203L1352.405,756.527L1368.842,756.527L1352.405,782.94L1352.405,862.126L1373.138,862.126L1373.138,813.388L1377.546,813.388L1392.181,862.126L1415.072,862.126L1398.185,808.208C1408.013,801.715 1413.832,787.67 1413.83,770.203ZM1373.142,756.527L1382.6,756.527C1389.218,756.527 1392.867,761.449 1392.867,770.384C1392.867,779.057 1389.028,784.241 1382.6,784.241L1373.142,784.241L1373.142,756.527Z" style="fill-rule:nonzero;"/>
    </g>
    <g transform="matrix(1.881913,0,0,1.175084,-1631.486149,-831.822563)">
        <path d="M1448.805,809.399L1479.233,809.399L1479.233,779.703L1448.805,779.703L1448.805,758.821L1482.346,758.821L1482.346,727.267L1428.073,727.267L1428.073,809.399L1444.506,809.399L1428.073,835.812L1428.073,862.2L1482.461,862.2L1482.461,830.468L1448.805,830.468L1448.805,809.399Z" style="fill-rule:nonzero;"/>
    </g>
</svg>
